<svg xmlns="http://www.w3.org/2000/svg" width="2400" height="420" viewBox="0 0 2400 420">
<defs>
  <filter id="shadow"><feDropShadow dx="0" dy="5" stdDeviation="6" flood-color="#000000" flood-opacity="0.18"/></filter>
  <linearGradient id="board" x1="0" y1="0" x2="0" y2="1"><stop offset="0" stop-color="#fffef9"/><stop offset="1" stop-color="#f7f0ff"/></linearGradient>
</defs>
<rect width="2400" height="420" fill="transparent"/>
<g opacity="0.75">
  <g transform="translate(170 150)" filter="url(#shadow)">
    <rect x="0" y="0" width="210" height="92" rx="16" fill="url(#board)" stroke="#8d63ac" stroke-width="6"/>
    <text x="105" y="34" text-anchor="middle" font-family="Arial" font-size="24" font-weight="700" fill="#332045">Waaambulance Way</text>
    <text x="105" y="64" text-anchor="middle" font-family="Arial" font-size="18" font-weight="700" fill="#7a5d90">snarky scenic route</text>
    <rect x="40" y="92" width="12" height="56" fill="#936a46"/><rect x="156" y="92" width="12" height="56" fill="#936a46"/>
  </g>
  <g transform="translate(720 225) scale(0.88)" filter="url(#shadow)">
    <rect x="0" y="18" width="110" height="66" rx="20" fill="#ffffff" stroke="#ef7ea7" stroke-width="6"/>
    <rect x="66" y="0" width="30" height="24" rx="8" fill="#ffffff" stroke="#ef7ea7" stroke-width="6"/>
    <rect x="12" y="38" width="22" height="22" rx="4" fill="#ef7ea7"/>
    <rect x="17" y="45" width="12" height="8" fill="#fff"/><rect x="21" y="41" width="4" height="16" fill="#fff"/>
    <rect x="44" y="8" width="14" height="10" rx="4" fill="#d282c2"/><rect x="58" y="8" width="14" height="10" rx="4" fill="#76C7D8"/>
    <circle cx="22" cy="86" r="12" fill="#34343b"/><circle cx="84" cy="86" r="12" fill="#34343b"/>
  </g>
  <g transform="translate(1160 172)" filter="url(#shadow)">
    <rect x="0" y="0" width="196" height="84" rx="16" fill="url(#board)" stroke="#8d63ac" stroke-width="6"/>
    <text x="98" y="36" text-anchor="middle" font-family="Arial" font-size="24" font-weight="700" fill="#332045">Hook-a-Waaambulance</text>
    <text x="98" y="62" text-anchor="middle" font-family="Arial" font-size="18" font-weight="700" fill="#7a5d90">next exit</text>
    <rect x="40" y="84" width="12" height="54" fill="#936a46"/><rect x="144" y="84" width="12" height="54" fill="#936a46"/>
  </g>
  <g transform="translate(1620 245) scale(0.96)" filter="url(#shadow)">
    <rect x="0" y="18" width="110" height="66" rx="20" fill="#ffffff" stroke="#ef7ea7" stroke-width="6"/>
    <rect x="66" y="0" width="30" height="24" rx="8" fill="#ffffff" stroke="#ef7ea7" stroke-width="6"/>
    <rect x="12" y="38" width="22" height="22" rx="4" fill="#ef7ea7"/>
    <rect x="17" y="45" width="12" height="8" fill="#fff"/><rect x="21" y="41" width="4" height="16" fill="#fff"/>
    <rect x="44" y="8" width="14" height="10" rx="4" fill="#d282c2"/><rect x="58" y="8" width="14" height="10" rx="4" fill="#76C7D8"/>
    <circle cx="22" cy="86" r="12" fill="#34343b"/><circle cx="84" cy="86" r="12" fill="#34343b"/>
  </g>
  <g transform="translate(2010 190)" filter="url(#shadow)">
    <rect x="0" y="0" width="180" height="80" rx="16" fill="url(#board)" stroke="#8d63ac" stroke-width="6"/>
    <text x="90" y="34" text-anchor="middle" font-family="Arial" font-size="23" font-weight="700" fill="#332045">Pura's Patrol</text>
    <text x="90" y="58" text-anchor="middle" font-family="Arial" font-size="18" font-weight="700" fill="#7a5d90">keep it rolling</text>
    <rect x="36" y="80" width="12" height="52" fill="#936a46"/><rect x="132" y="80" width="12" height="52" fill="#936a46"/>
  </g>
  <g fill="#f186b8" opacity="0.7">
    <g transform="translate(560 108) scale(0.9)"><path d="M0,12 C0,3 6,0 12,0 C18,0 24,4 24,12 C24,18 17,23 12,28 C7,23 0,18 0,12Z"/></g>
    <g transform="translate(920 90) scale(0.74)"><path d="M0,12 C0,3 6,0 12,0 C18,0 24,4 24,12 C24,18 17,23 12,28 C7,23 0,18 0,12Z"/></g>
    <g transform="translate(1490 112) scale(0.82)"><path d="M0,12 C0,3 6,0 12,0 C18,0 24,4 24,12 C24,18 17,23 12,28 C7,23 0,18 0,12Z"/></g>
    <g transform="translate(1860 88) scale(0.9)"><path d="M0,12 C0,3 6,0 12,0 C18,0 24,4 24,12 C24,18 17,23 12,28 C7,23 0,18 0,12Z"/></g>
  </g>
</g>
</svg>